<svg xmlns="http://www.w3.org/2000/svg" xmlns:xlink="http://www.w3.org/1999/xlink" id="Layer_2" data-name="Layer 2" viewBox="0 0 3308.04 2944.99"><defs><style>      .cls-1 {        fill: none;      }      .cls-2 {        clip-path: url(#clippath);      }      .cls-3 {        fill: #eda342;      }      .cls-4 {        fill: #fff;      }      .cls-5 {        fill: #ffe5ca;      }      .cls-6 {        fill: #ff907e;      }      .cls-7 {        fill: #ba340f;      }      .cls-8 {        fill: #b54412;      }      .cls-9 {        fill: #d34418;      }      .cls-10 {        fill: #c65720;      }      .cls-11 {        fill: #dd7f10;      }      .cls-12 {        fill: #c87540;      }      .cls-13 {        fill: #c4eab7;      }      .cls-14 {        fill: #281607;      }      .cls-15 {        fill: #476144;      }      .cls-16 {        fill: #5b80bc;      }      .cls-17 {        fill: #5e80fb;      }      .cls-18 {        clip-path: url(#clippath-1);      }      .cls-19 {        clip-path: url(#clippath-2);      }    </style><clipPath id="clippath"><path class="cls-1" d="m3308.04,2316.51c-145-1166.7-285.72-1225.05-285.72-1225.05l34.74-249.93,247.12-96.53s-119.7-281.87-177.62-316.62-158.31-61.78-158.31-61.78c-247.12,96.53-405.43-3.86-405.43-3.86,0,0-108.11,46.33-135.14,77.22-27.03,30.89-108.11,196.92-146.73,335.93l204.64,65.64,30.89,266.42s-110.28-35.37-220.09,1220.15l118.74,23.56c242.73,48.16,492.64,47.26,735.01-2.64l157.89-32.51Z"></path></clipPath><clipPath id="clippath-1"><path class="cls-1" d="m1895.82,1364.42l-162.18,36.04-108.12-409.31,2.57,489.11h-671.89l10.3-427.33-97.82,368.12-149.31-23.17s133.86-803.17,190.5-911.29,208.52-123.57,208.52-123.57c0,0,86.87,129.21,225.88,100.89,139.01-28.32,153.48-110.63,153.48-110.63,0,0,153.52,43.21,189.56,79.25,36.04,36.04,208.52,931.89,208.52,931.89Z"></path></clipPath><clipPath id="clippath-2"><path class="cls-1" d="m1406.12,1143.01h504.56s-15.73-65.45,18.88-243.7c34.32-176.77,5.15-245.41,5.15-245.41,5.15-54.92,15.81-243.7,15.81-243.7l-69.07-35.49-32.55,258.6c-102.97,12.01-200.79,108.12-200.79,108.12-87.53-87.53-211.09-111.55-211.09-111.55l-18.88-248.85-59.47,27.25,16.57,223.31s-37.76,84.09-5.15,229.97,36.04,281.45,36.04,281.45Z"></path></clipPath></defs><g id="_28.02HangerClothesShoes" data-name="28.02HangerClothesShoes"><g><g><path class="cls-14" d="m846.99,2317.75c1.65-32.62-5.36-68.93-16.49-99.64-11.13-30.71-33.26-54.36-63.8-65.95-38-14.42-85.38,2.02-112.62,32.19-27.24,30.17-38.83,85.29-32.89,125.51h-48.03c-10.38-55.24,17.03-137.36,60.88-172.51,43.85-35.15,107.4-43.81,159.06-21.66,17.82,7.64,34.33,18.76,46.88,33.53,20.22,23.8,32.65,54.49,40.7,84.66,4.66,17.45,12.19,50.18,14.34,71.68"></path><path class="cls-14" d="m518.86,2405.94c-2.73,51.86,5.73,104.28,24.65,152.64,6.74,17.23,15.02,34.29,28.01,47.46,7.84,7.95,17.2,14.26,26.85,19.89,66.08,38.55,147.93,45.85,222.15,27.35,12.52-3.12,24.93-6.96,36.57-12.54,39.3-18.84,67.14-56.6,82.1-97.54,14.96-40.93,18.35-85.13,19.23-128.7"></path><path class="cls-9" d="m960.24,2296.96c1.88,47.33,2.81,93.05,1.81,140.4-.22,10.39-1.35,22.4-9.97,28.21-5.85,3.95-20.27,7.3-27.33,7.54-87.61,2.95-175.26,8.68-262.94,5.53-34.16-1.23-68.29-3.49-102.31-6.8-8.89-.86-21.75-.46-29.71-4.82-7.35-4.02-11.6-13.71-13.49-21.37-5.12-20.73-5.14-41.91-5.7-63.1-.72-27.46-.03-55.26,2.17-82.65l.18-2.24c146.23,0,301.06-.72,447.29-.72Z"></path><rect class="cls-5" x="700.75" y="2426.71" width="83.15" height="73.12" rx="3" ry="3"></rect><path class="cls-3" d="m569.49,2294.24c3.59,2.13,7.72,2.02,11.8,2.14,5.2.15,10.42.14,15.62.16,5.21.02,10.41,0,15.62-.01,4.69,0,9.6.48,14.2-.48,1.92-.4,1.92-3.49,0-3.89-4.6-.96-9.52-.48-14.2-.48-5.21,0-10.41-.03-15.62-.01-5.2.02-10.42.01-15.62.16-4.08.11-8.2,0-11.8,2.14-.11.06-.11.22,0,.28h0Z"></path><path class="cls-3" d="m844.04,2294.24c3.59,2.13,7.72,2.02,11.8,2.14,5.2.15,10.42.14,15.62.16,5.21.02,10.41,0,15.62-.01,4.69,0,9.6.48,14.2-.48,1.92-.4,1.92-3.49,0-3.89-4.6-.96-9.52-.48-14.2-.48-5.21,0-10.41-.03-15.62-.01-5.2.02-10.42.01-15.62.16-4.08.11-8.2,0-11.8,2.14-.11.06-.11.22,0,.28h0Z"></path></g><g><rect class="cls-13" x="434.58" y="2664.66" width="2563.77" height="40.61"></rect><rect class="cls-13" x="-879.29" y="1452.95" width="2663.51" height="40.61" transform="translate(-1020.79 1925.73) rotate(-90)"></rect><rect class="cls-13" x="1642.05" y="1461.12" width="2679.84" height="40.61" transform="translate(1500.55 4463.39) rotate(-90)"></rect><circle class="cls-13" cx="2979.6" cy="2864.82" r="59.8" transform="translate(-1153.03 2945.98) rotate(-45)"></circle><circle class="cls-13" cx="2979.6" cy="2864.82" r="20.62" transform="translate(-1153.03 2945.98) rotate(-45)"></circle><circle class="cls-13" cx="450.18" cy="2864.82" r="59.8" transform="translate(-2449.7 2841.37) rotate(-80.61)"></circle><circle class="cls-13" cx="450.18" cy="2864.82" r="20.62" transform="translate(-2449.74 2847.26) rotate(-80.72)"></circle><g><g><rect class="cls-13" x="349.94" y="173.05" width="2668.1" height="38.61"></rect><rect class="cls-13" x="332.64" y="161.29" width="54.06" height="63.07"></rect><rect class="cls-13" x="3000.74" y="161.29" width="54.06" height="63.07"></rect></g><path class="cls-13" d="m1315.39,166.37c11.03,1.8,20.76,9.1,24.9,19.62,4.99,12.7.38,26.11-4.42,38.07-.96,2.39,2.91,3.43,3.86,1.06,5.28-13.15,9.79-27.8,3.88-41.57-4.77-11.11-15.27-19.1-27.15-21.04-2.52-.41-3.6,3.44-1.06,3.86h0Z"></path><path class="cls-13" d="m693.56,166.37c11.03,1.8,20.76,9.1,24.9,19.62,4.98,12.67.38,25.98-4.42,37.91-.96,2.39,2.91,3.43,3.86,1.06,5.27-13.12,9.78-27.67,3.87-41.41-4.77-11.11-15.27-19.1-27.15-21.04-2.52-.41-3.6,3.44-1.06,3.86h0Z"></path><path class="cls-13" d="m1655.95,166.37c11.03,1.8,20.76,9.1,24.9,19.62,5.03,12.78.14,26.22-4.69,38.23-.96,2.39,2.91,3.43,3.86,1.06,5.32-13.21,10.11-27.86,4.14-41.73-4.77-11.11-15.27-19.1-27.14-21.04-2.52-.41-3.6,3.44-1.06,3.86h0Z"></path><path class="cls-13" d="m2233.78,166.92c11.03,1.8,20.76,9.1,24.9,19.62,4.94,12.56.66,25.81-4.1,37.68-.96,2.39,2.91,3.43,3.86,1.06,5.23-13.04,9.4-27.57,3.55-41.18-4.77-11.11-15.27-19.1-27.15-21.04-2.52-.41-3.6,3.44-1.06,3.86h0Z"></path><path class="cls-13" d="m2761.93,166.44c11.03,1.8,20.76,9.1,24.9,19.62,5.08,12.91-.03,26.61-4.9,38.72-.96,2.39,2.91,3.43,3.86,1.06,5.36-13.32,10.38-28.21,4.36-42.22-4.77-11.11-15.27-19.1-27.15-21.04-2.52-.41-3.6,3.44-1.06,3.86h0Z"></path></g></g><g><g><g><path class="cls-9" d="m2731.33,219.02c-10.01-15.42-7.15-36.85,8.66-47.24,14.92-9.81,35-5.84,44.46,9.53,11.05,17.96-1.3,39.96-8.24,57.12-7.82,19.3-15.63,38.61-23.45,57.91-.97,2.39,2.9,3.42,3.86,1.06,7.57-18.7,15.14-37.4,22.72-56.1,6.45-15.93,16.58-34.13,12.7-51.88-2.84-12.99-14.01-23.73-26.97-26.46-13.31-2.8-27.66,2.86-36,13.49-10.05,12.81-9.89,31.16-1.18,44.59,1.4,2.15,4.86.15,3.45-2.02h0Z"></path><path class="cls-9" d="m3083.53,427.32c-10.69-5.55-21.38-11.1-32.07-16.65-25.59-13.28-51.17-26.56-76.76-39.84-30.89-16.04-61.79-32.07-92.68-48.11-26.14-13.57-52.28-27.14-78.42-40.71-8.33-4.32-16.66-8.65-24.99-12.97-3.21-1.66-6.9-4.44-10.41-5.4-2.55-.7-5.63,1.68-7.9,2.81-6.91,3.44-13.81,6.88-20.72,10.32-24.68,12.3-49.36,24.6-74.04,36.9-30.92,15.41-61.83,30.82-92.75,46.22-27.78,13.84-55.56,27.69-83.33,41.53-15.18,7.56-30.36,15.13-45.53,22.69-.72.36-1.43.71-2.15,1.07-1.83.91-.89,3.72,1.01,3.73,21.33.07,42.66.14,63.99.21,50.86.17,101.73.34,152.59.51l184.45.61c53.42.18,106.84.36,160.26.53,17.42.06,34.84.12,52.25.17,8.3.03,16.81.6,25.11.08.36-.02.72,0,1.08,0,2.57,0,2.58-3.99,0-4-21.33-.07-42.66-.14-63.99-.21-50.86-.17-101.73-.34-152.59-.51-61.48-.2-122.97-.41-184.45-.62-53.42-.18-106.84-.36-160.26-.53-17.42-.06-34.84-.12-52.25-.17l-16.48-.05c-2.58,0-6.11-.66-8.62-.03-.31.08-.75,0-1.08,0l1.01,3.73c10.71-5.34,21.43-10.68,32.14-16.02,25.88-12.9,51.77-25.8,77.65-38.7,31.18-15.54,62.35-31.07,93.53-46.61,26.97-13.44,53.93-26.88,80.9-40.32,8.91-4.44,17.81-8.88,26.72-13.31,2.78-1.39,5.57-2.77,8.35-4.16,1.17-.58,3.58-1.23,4.46-2.22.11-.12.4-.2.55-.27h-2.02c10.41,5.4,20.82,10.81,31.24,16.21,25.16,13.06,50.32,26.12,75.48,39.18,30.31,15.73,60.62,31.47,90.94,47.2,26.34,13.67,52.67,27.34,79.01,41.01,8.64,4.48,17.27,8.97,25.91,13.45,4.01,2.08,8.1,4.79,12.33,6.4.19.07.37.19.55.29,2.28,1.18,4.31-2.27,2.02-3.45Z"></path></g><g class="cls-2"><path class="cls-9" d="m3308.04,2316.51c-145-1166.7-285.72-1225.05-285.72-1225.05l34.74-249.93,247.12-96.53s-119.7-281.87-177.62-316.62-158.31-61.78-158.31-61.78c-247.12,96.53-405.43-3.86-405.43-3.86,0,0-108.11,46.33-135.14,77.22-27.03,30.89-108.11,196.92-146.73,335.93l204.64,65.64,30.89,266.42s-110.28-35.37-220.09,1220.15l118.74,23.56c242.73,48.16,492.64,47.26,735.01-2.64l157.89-32.51Z"></path><polygon class="cls-14" points="2485.6 841.52 2480 569.73 2469.7 835.74 2485.6 841.52"></polygon><polygon class="cls-14" points="3057.06 841.52 3037.76 585.18 3075.52 832.31 3057.06 841.52"></polygon><path class="cls-3" d="m2562.82,362.73s142.85,91.39,405.43,3.86c0,0-63.49,236.61-171.61,414.23,0,0-226.09-374.33-233.81-418.1Z"></path><path class="cls-4" d="m2561.86,362.99c15.15,37.27,33.33,73.31,52.1,108.85,24.82,46.99,51.18,93.15,78.25,138.88,30.76,51.96,62.51,103.33,94.97,154.24,33.79,53.01,68.37,105.53,103.73,157.51,33.64,49.45,67.98,98.43,103.32,146.69,4.07,5.55,8.15,11.09,12.24,16.62.76,1.02,2.49.03,1.73-1.01-34.98-47.27-68.95-95.29-102.22-143.78-35.36-51.54-69.92-103.63-103.73-156.21-32.98-51.28-65.24-103.03-96.56-155.35-27.84-46.52-54.99-93.47-80.71-141.2-20.05-37.21-39.5-74.89-56.17-113.76-1.71-3.99-3.38-7.99-5.02-12.01-.48-1.18-2.41-.66-1.93.53h0Z"></path><path class="cls-4" d="m2614.98,800.14c37.32,47.75,79.55,91.59,125.85,130.69,46.15,38.97,96.25,73.27,149.33,102.1,29.58,16.07,60.08,30.4,91.3,42.98,1.19.48,1.71-1.45.53-1.93-55.88-22.52-109.38-50.8-159.49-84.23-50.11-33.42-96.81-71.95-139.13-114.81-23.78-24.09-46.13-49.56-66.98-76.22-.79-1.01-2.2.41-1.41,1.41h0Z"></path><path class="cls-16" d="m2763.05,1326.08c53.71,80.54,67.53,186.36,36.31,277.98-16.97-7.9-22.83-28.72-26.19-47.13-13.84-76.01-17.26-153.92-10.13-230.85Z"></path><path class="cls-16" d="m2574.06,1198.58c-48.04-19.56-76.68-68.35-99.61-114.88-17.49-35.49-33.73-71.57-49.63-107.8,92.07,28.98,157.43,126.5,149.24,222.68Z"></path><path class="cls-16" d="m2273.93,2147.29c33.54-39.57,88.82-51.6,140.17-58.92,39.17-5.58,78.52-9.78,117.89-13.62-56.2,78.48-169.21,110.24-258.06,72.53Z"></path><path class="cls-16" d="m2329.6,2132.93c-34.23-34.61-42.04-89.09-30.59-136.4,11.45-47.31,39.4-88.84,69.16-127.37,15.94,89,2.19,183.06-38.57,263.77Z"></path><path class="cls-16" d="m2439.34,2308.87c-18.31-74.09-67.94-139.9-134.13-177.88-6.91,40.98,3.75,84.63,28.77,117.81,25.02,33.18,64.06,55.44,105.36,60.06Z"></path><path class="cls-16" d="m3015.52,2455.75c-39.94-41.66-59.31-98.79-71.57-155.19-12.26-56.39-18.68-114.37-38.19-168.68,48.07,34.8,78.65,89.79,93.96,147.12s16.67,117.4,15.8,176.74Z"></path><path class="cls-16" d="m3013.22,2417.38c-17.28-48.18-11.87-102.57,7.54-149.93,19.4-47.36,51.88-88.36,88.18-124.44,13.49,48.51,4.99,101.11-14.68,147.46-19.67,46.34-49.88,87.36-81.04,126.91Z"></path><path class="cls-16" d="m2937.89,1397.68c98.63-51.28,170.01-151.88,185.82-261.91-54.4,12.19-95,58.49-120.57,108.03-25.57,49.54-40,104.19-65.25,153.89Z"></path><path class="cls-16" d="m3143.15,1144.94c-43.52,10.95-88.67,17.95-133.27,12.96-44.6-4.99-88.86-22.9-119.44-55.75,86.03-9.14,174.48,5.84,252.71,42.79Z"></path><path class="cls-16" d="m2478.06,652.84c-66.35-44.65-150.59-61.85-229.13-46.76,61.7,51.72,149.86,60.84,229.13,46.76Z"></path><path class="cls-16" d="m2343.61,895.59c3.01-75.78,42.57-144.63,81.06-209.98,16.46,36.86,12.22,80.7-4.66,117.36-16.88,36.66-45.27,66.92-76.4,92.62Z"></path><path class="cls-16" d="m3079.7,1752.28c100.82,45.77,183.15,130.87,225.55,233.15-66.6-15.83-126.95-56.66-166.4-112.61-25.86-36.67-42.62-78.83-59.15-120.54Z"></path><path class="cls-16" d="m2758.29,1528.93c16.65,22.38,33.65,45.47,40.82,72.43-44.43-8.95-82.84-37.86-111.72-72.8-28.88-34.94-49.4-75.87-69.67-116.41,60.91,13.24,103.37,66.77,140.57,116.78Z"></path><path class="cls-16" d="m2500.23,1422.53c-5.16-35.29-10.64-71.56-28.5-102.43-17.87-30.87-51.27-55.5-86.79-52.2,15.84,64.1,58.38,121.16,115.3,154.64Z"></path><path class="cls-16" d="m2656.79,2005.94c1.46-38.7,25.04-73.98,55.42-98,30.38-24.02,67.14-38.38,103.69-51.17-35.15,65.09-91.89,118.29-159.11,149.17Z"></path><path class="cls-16" d="m3112.19,312.84c-40.35,16.23-64.38,59.82-69.68,102.99-5.3,43.17,4.82,86.58,14.87,128.9,48.3-65.77,68.55-151.46,54.81-231.89Z"></path><path class="cls-16" d="m3188.79,641.58c34.49-80.69,22.48-179.43-30.35-249.5-8.54,42.81-17.12,86.13-15.22,129.75,1.9,43.62,15.35,88.25,45.58,119.75Z"></path></g></g><g><g><path class="cls-6" d="m2175.3,2342.84c13.52-164.26,46.58-386.23,60.1-550.49,19.65,182.11,42.19,368.29,57.26,550.84l538.3-58.05-264.15-1490.3c-21.05-99.08-42.47-216.23-107.58-297.71,14.32-32.66,8.96-73.08-13.4-100.87,11.52-12.3,18.89-28.43,20.64-45.19.72-6.88.4-14.25-3.34-20.06-3.74-5.82-11.78-9.28-17.88-6.02-63.21,8.69-148.07,21.91-209.85,45.07-84.41-23.7-151.51-28.59-239.13-31.76-6.99,25.09,4.49,54.16,26.75,67.69-19.76,24.42-26.03,51.76-23.55,83.08-66.4,36.86-84.36,122.48-95.21,197.65-74.33,515.18-199.55,1032.11-257.46,1611.29l528.5,44.83Z"></path><path class="cls-15" d="m2155.61,515.5c-37.58-2.22-119.45-17.99-156.13-26.44,0,0-1.76-37.06,5.1-45.64l180.2,49.77-29.18,22.31"></path><path class="cls-15" d="m2274.02,512.07c51.77,4,135.02-1.65,185.21-14.95,0,0,13.86-38.25,7-62.28l-217.96,60.07"></path><path class="cls-17" d="m2812.05,2230.97c1.29,0,1.29-2,0-2s-1.29,2,0,2h0Z"></path><path class="cls-15" d="m2183.92,542.53c-2.24,4.99-4.48,10.07-6.74,15.16-71.18,160.61-159.06,372.34-229.11,529.61-20.16-12.38-63.12-27.88-85.05-36.68,55.68-187.59,154.4-367.3,279.41-518.54,6.05-7.31,12.18-14.54,18.33-21.73l23.17,32.18Z"></path><g><path class="cls-4" d="m2298.36,2232.04c122.84-19.15,246.71-30.39,369.77-47.99,33.87-4.84,67.67-10.22,101.33-16.37,1.26-.23.73-2.16-.53-1.93-121.22,22.17-243.99,33.75-366.13,49.52-35.05,4.52-70.05,9.39-104.97,14.84-1.27.2-.73,2.13.53,1.93h0Z"></path><path class="cls-4" d="m1682.58,2167.68c62.1,11.33,124.47,21.2,186.99,29.9,62.95,8.75,126.06,16.32,189.3,22.64,35.08,3.5,70.21,6.61,105.36,9.29,1.28.1,1.28-1.9,0-2-62.33-4.74-124.54-10.84-186.63-18.1-63.87-7.46-127.6-16.14-191.12-26.12-34.53-5.43-68.99-11.25-103.38-17.52-1.26-.23-1.8,1.7-.53,1.93h0Z"></path><path class="cls-4" d="m2398.75,770.2c27.57,140.45,54.12,281.09,79.65,421.92,25.53,140.83,50.04,281.85,73.52,423.04,13.15,79.07,25.98,158.18,38.48,237.35.2,1.27,2.13.73,1.93-.53-22.34-141.37-45.69-282.59-70.07-423.62-24.38-141.03-49.79-281.89-76.22-422.56-14.8-78.77-29.92-157.49-45.36-236.14-.25-1.26-2.18-.73-1.93.53h0Z"></path><path class="cls-4" d="m2218.81,1133.33c3.84,85.97,7.06,171.96,9.64,257.98,2.58,86.02,4.54,172.05,5.86,258.09.75,48.5,1.29,97.01,1.64,145.52,0,1.29,2.01,1.29,2,0-.62-86.05-1.86-172.1-3.73-258.13-1.87-86.03-4.38-172.05-7.51-258.05-1.77-48.48-3.74-96.95-5.9-145.41-.06-1.28-2.06-1.29-2,0h0Z"></path><path class="cls-4" d="m2050.21,953.44c-11.37,137.28-22.74,274.56-34.11,411.85-11.37,137.28-22.74,274.56-34.11,411.84-6.38,77.05-12.76,154.09-19.14,231.14-.11,1.28,1.89,1.28,2,0,11.37-137.28,22.74-274.56,34.11-411.85,11.37-137.28,22.74-274.56,34.11-411.84,6.38-77.05,12.76-154.09,19.14-231.14.11-1.28-1.89-1.28-2,0h0Z"></path></g><path class="cls-15" d="m2257.52,1020.19c-37.43,10.73-71.93,31.53-98.88,59.65-8.86-128.87,2.86-258.17,14.57-386.81,3.99-43.79,7.95-87.55,11.94-131.34,1.13-12.56,2.29-25.12,3.42-37.69l20.41,6.9c-.44,13.8-.7,27.6-.8,41.39-1.29,150.57,15.29,301.24,49.32,447.9Z"></path><path class="cls-14" d="m2160.75,510.35l23.17,32.18c-2.24,4.99-4.48,10.07-6.74,15.16l-20.93-10.48c-3.94-1.98-7.54-4.69-10.22-8.19-1.83-2.42-2.99-4.74-3.6-6.95,6.05-7.31,12.18-14.54,18.33-21.73Z"></path><path class="cls-14" d="m2209,530.9c-.44,13.8-.7,27.6-.8,41.39-2.34-.57-4.61-1.39-6.8-2.47l-16.24-8.14c1.13-12.56,2.29-25.12,3.42-37.69l20.41,6.9Z"></path><path class="cls-15" d="m2204.39,456.74c12.33-10.06,30.44-8.45,40.77,3.65,17.13,20.05,31.05,44.43,31.31,68.74.05,4.77-.61,9.88-3.76,13.46-2.21,2.51-5.37,3.93-8.42,5.28-9.04,4-18.08,8.01-27.13,12.01-9.89,4.38-21.34,3.37-30.31-2.67l-41.9-28.2c-3.65-2.46-6.87-5.59-9.07-9.41-7.31-12.66.87-21.18,8.47-28.16,13-11.96,26.35-23.53,40.04-34.7Z"></path><path class="cls-4" d="m2269.94,421.21c56.85-6.51,113.5-14.71,169.86-24.59,1.27-.22.73-2.15-.53-1.93-56.19,9.85-112.66,18.03-169.33,24.52-1.26.14-1.28,2.15,0,2h0Z"></path><path class="cls-4" d="m2024.04,409.7c40.72,9.48,82.2,15.29,123.95,17.36,1.29.06,1.28-1.94,0-2-41.58-2.06-82.87-7.85-123.42-17.29-1.25-.29-1.79,1.64-.53,1.93h0Z"></path></g><g><g><path class="cls-9" d="m2203.19,219.5c-10.01-15.42-7.15-36.85,8.66-47.24,14.92-9.81,35-5.84,44.46,9.53,11.05,17.96-1.3,39.96-8.24,57.12-7.82,19.3-15.63,38.61-23.45,57.91-.97,2.39,2.9,3.42,3.86,1.06,7.57-18.7,15.14-37.4,22.72-56.1,6.45-15.93,16.58-34.13,12.7-51.88-2.84-12.99-14.01-23.73-26.97-26.46-13.31-2.8-27.66,2.86-36,13.49-10.05,12.81-9.89,31.16-1.18,44.59,1.4,2.15,4.86.15,3.45-2.02h0Z"></path><path class="cls-9" d="m2334.14,312.96c-20.63-10.71-41.49-23.88-64.1-29.86-20.94-5.55-43.24-5.58-64.2-.09-12.85,3.36-24.48,9.23-36.28,15.11-9.98,4.98-19.97,9.95-29.95,14.93-2.3,1.15-.28,4.6,2.02,3.45,8.01-3.99,16.01-7.98,24.02-11.97,10.08-5.02,20.12-10.58,30.74-14.4,21.34-7.67,44.67-9.3,66.85-4.55,14.32,3.07,27.15,9.17,40.02,15.85,9.62,4.99,19.24,9.99,28.86,14.98,2.28,1.18,4.31-2.27,2.02-3.45h0Z"></path></g><path class="cls-9" d="m1913.16,316.79h621.12c8.35,0,16.9.54,25.24,0,.35-.02.72,0,1.07,0,2.57,0,2.58-4,0-4h-621.12c-8.35,0-16.9-.54-25.24,0-.35.02-.72,0-1.07,0-2.57,0-2.58,4,0,4h0Z"></path><rect class="cls-9" x="1983.6" y="286.47" width="36.04" height="72.08"></rect><rect class="cls-9" x="2445.69" y="286.47" width="36.04" height="72.08"></rect><g><path class="cls-4" d="m1995.98,303.2v42.48c0,.64,1,.64,1,0v-42.48c0-.64-1-.64-1,0h0Z"></path><path class="cls-4" d="m2007.56,303.2v42.48c0,.64,1,.64,1,0v-42.48c0-.64-1-.64-1,0h0Z"></path></g><g><path class="cls-4" d="m2456.13,303.2v42.48c0,.64,1,.64,1,0v-42.48c0-.64-1-.64-1,0h0Z"></path><path class="cls-4" d="m2467.71,303.2v42.48c0,.64,1,.64,1,0v-42.48c0-.64-1-.64-1,0h0Z"></path></g></g></g><g><g><path class="cls-9" d="m1284.79,218.95c-10.01-15.42-7.15-36.85,8.66-47.24,14.92-9.81,35-5.84,44.46,9.53,11.05,17.96-1.3,39.96-8.24,57.12-7.82,19.3-15.63,38.61-23.45,57.91-.97,2.39,2.9,3.42,3.86,1.06l22.72-56.1c6.45-15.93,16.58-34.13,12.7-51.88-2.84-12.99-14.01-23.73-26.97-26.46-13.31-2.8-27.66,2.86-36,13.49-10.05,12.81-9.89,31.16-1.18,44.59,1.4,2.15,4.86.15,3.45-2.02h0Z"></path><path class="cls-9" d="m1636.99,427.25c-10.69-5.55-21.38-11.1-32.07-16.65-25.59-13.28-51.17-26.56-76.76-39.84-30.89-16.04-61.79-32.07-92.68-48.11-26.14-13.57-52.28-27.14-78.42-40.71-8.33-4.32-16.66-8.65-24.99-12.97-3.21-1.66-6.9-4.44-10.41-5.4-2.55-.7-5.63,1.68-7.9,2.81-6.91,3.44-13.81,6.88-20.72,10.32-24.68,12.3-49.36,24.6-74.04,36.9-30.92,15.41-61.83,30.82-92.75,46.22-27.78,13.84-55.56,27.69-83.33,41.53-15.18,7.56-30.36,15.13-45.53,22.69-.72.36-1.43.71-2.15,1.07-1.83.91-.89,3.72,1.01,3.73,21.33.07,42.66.14,63.99.21,50.86.17,101.73.34,152.59.51,61.48.21,122.97.41,184.45.62,53.42.18,106.84.36,160.26.53,17.42.06,34.84.12,52.25.17,8.3.03,16.81.6,25.11.08.36-.02.73,0,1.08,0,2.57,0,2.58-3.99,0-4-21.33-.07-42.66-.14-63.99-.21-50.86-.17-101.73-.34-152.59-.51-61.48-.21-122.97-.41-184.45-.62-53.42-.18-106.84-.36-160.26-.53-17.42-.06-34.84-.12-52.25-.17-5.49-.02-10.99-.04-16.48-.05-2.58,0-6.11-.66-8.62-.03-.31.08-.75,0-1.08,0l1.01,3.73c10.71-5.34,21.43-10.68,32.14-16.02,25.88-12.9,51.77-25.8,77.65-38.7,31.18-15.54,62.35-31.07,93.53-46.61,26.97-13.44,53.93-26.88,80.9-40.32,8.91-4.44,17.81-8.88,26.72-13.31,2.78-1.39,5.57-2.77,8.35-4.16,1.17-.58,3.58-1.23,4.46-2.22.11-.12.4-.2.55-.27h-2.02c10.41,5.4,20.82,10.81,31.24,16.21,25.16,13.06,50.32,26.12,75.48,39.18,30.31,15.73,60.62,31.47,90.94,47.2,26.34,13.67,52.67,27.34,79.01,41.01,8.64,4.48,17.27,8.97,25.91,13.45,4.01,2.08,8.1,4.79,12.33,6.4.19.07.37.19.55.29,2.28,1.18,4.31-2.27,2.02-3.45Z"></path></g><g class="cls-18"><path class="cls-5" d="m1895.82,1364.42l-162.18,36.04-108.12-409.31,2.57,489.11h-671.89l10.3-427.33-97.82,368.12-149.31-23.17s133.86-803.17,190.5-911.29,208.52-123.57,208.52-123.57c0,0,70.93,115.89,211.95,100.4,156.17-17.16,167.41-110.14,167.41-110.14,0,0,153.52,43.21,189.56,79.25,36.04,36.04,208.52,931.89,208.52,931.89Z"></path><path class="cls-9" d="m717.18,1242.32c74.29,26.29,152.57,41.97,230.54,52.35,79.21,10.54,159.11,14.91,238.98,15.63,80.23.72,160.45-2.21,240.56-6.39,80.15-4.18,160.37-8.98,240.07-18.63,78.84-9.55,157.32-23.96,233.18-47.79,9.39-2.95,18.67-6.11,27.86-9.64,2.23-.86,1.37-4.4-1.01-3.66-37.87,11.79-75.61,23.26-114.34,31.98-38.67,8.7-77.76,15.48-117.02,20.89-79.76,11-160.16,16.33-240.49,20.89-79.31,4.51-158.71,8.04-238.16,8.32-79.18.27-158.47-2.68-237.21-11.24-79.24-8.62-157.95-23.19-234.61-45.14-9.4-2.69-18.78-5.47-28.16-8.24-.44-.13-.61.53-.19.68h0Z"></path><path class="cls-9" d="m727.13,1195.25c76.25,21.83,153.88,38.86,232.25,51.11,77.41,12.1,155.5,19.74,233.78,22.93,79.34,3.23,158.85,2,238.07-3.51,78.74-5.49,157.18-15.22,234.89-29.06,77.88-13.87,155.04-31.85,231.04-53.8,9.59-2.77,19.14-5.64,28.64-8.67,2.37-.76,1.39-4.44-1.03-3.75-75.79,21.68-151.77,41.59-229.23,56.52-77.87,15-156.55,25.92-235.57,32.6-78.4,6.63-157.16,9.07-235.82,7.15-79.15-1.93-158.23-8.2-236.66-19.06-77.87-10.78-155.06-26.06-231.19-45.7-9.66-2.49-19.29-5.06-28.91-7.69-.61-.17-.87.77-.26.95h0Z"></path><path class="cls-9" d="m748.8,1148.18c69.32,21.49,141.42,34.74,213.3,44.19,72.69,9.55,145.96,14.43,219.26,15.4,73.45.97,146.92-2.03,220.11-8.21,73.39-6.2,146.53-15.53,219.16-27.76,73.87-12.45,147.22-28.04,219.78-46.62,9.12-2.34,18.18-4.83,27.21-7.49,1.97-.58,1.15-3.55-.85-3.07-36.28,8.61-72.33,18.05-108.74,26.12-36.04,7.99-72.25,15.24-108.59,21.75-73.72,13.2-147.98,23.41-222.55,30.43-72.41,6.82-145.13,10.55-217.87,10.59-72.62.04-145.27-3.66-217.44-11.84-72.68-8.24-144.35-21.74-215.56-38.32-8.97-2.09-17.93-4.24-26.89-6.38-.79-.19-1.12.98-.34,1.22h0Z"></path><path class="cls-9" d="m754.32,1063.78c66.7,23.4,137.48,34.81,207.64,41.57,71.7,6.9,143.82,8.24,215.79,9.51,71.84,1.26,143.72,1.86,215.55-.13,71.61-1.99,143.21-6.52,214.29-15.61,70.59-9.02,140.67-22.53,209.05-42.36,8.51-2.47,16.98-5.07,25.4-7.83,2.36-.78,1.38-4.48-1.03-3.75-68.16,20.49-137.22,36.21-207.68,46.45-71.02,10.32-142.69,15.78-214.38,18.47-71.14,2.67-142.36,2.6-213.54,1.72-71.31-.89-142.74-1.75-213.89-6.94-71.36-5.21-142.54-15.05-211.53-34.45-8.5-2.39-16.98-4.92-25.43-7.48-.55-.17-.77.67-.24.86h0Z"></path><path class="cls-9" d="m759.69,1001.12c72.35,13.03,145.36,22.18,218.59,28.59,73.47,6.43,147.18,10.07,220.92,10.92,74.1.86,148.24-1.12,222.19-5.91,73.41-4.75,146.64-12.28,219.48-22.54,73.03-10.29,145.66-23.35,217.69-39.17,9.14-2.01,18.26-4.07,27.36-6.22,2.35-.56,1.35-4.14-1-3.62-71.66,15.98-143.64,30.08-216.25,41.05-73.1,11.05-146.63,19.29-220.36,24.74-73.19,5.41-146.58,8.07-219.97,8-73.39-.07-146.77-2.9-219.95-8.5-73.75-5.64-147.3-14.13-220.5-24.72-9.27-1.34-18.55-2.66-27.82-4.03-.91-.13-1.32,1.23-.39,1.4h0Z"></path><path class="cls-9" d="m752.41,933.52c73.78,18.19,149.7,25.17,225.33,30.36,74.02,5.08,148.11,9.7,222.25,12.66,73.74,2.95,147.59,4.21,221.38,2.02,72.67-2.15,145.3-7.67,217.25-18.28,72.17-10.64,143.6-26.5,213.02-49.03,8.56-2.78,17.06-5.69,25.52-8.79,2.12-.78,1.25-4.17-.95-3.44-68.75,22.95-138.54,41.05-210.05,53.11-72.34,12.2-145.52,18.92-218.78,22.03-73.01,3.1-146.13,2.61-219.15.25-73.09-2.36-146.11-6.51-219.1-10.97-76.68-4.68-153.44-10.08-228.96-24.81-9.21-1.8-18.39-3.75-27.54-5.85-.47-.11-.67.61-.2.72h0Z"></path><path class="cls-9" d="m781.15,877.69c67.34,12.43,135.18,21.89,203.35,28.43,69.08,6.62,138.44,10.19,207.84,10.83,69.06.63,138.14-1.64,207-6.9,68.67-5.24,137.11-13.37,205.09-24.37,68.17-11.04,135.87-24.96,202.85-41.78,8.37-2.1,16.73-4.25,25.08-6.44,2.01-.53,1.16-3.65-.86-3.12-66.48,17.45-133.68,32.09-201.39,43.84-68.23,11.84-136.96,20.75-205.95,26.74-68.47,5.94-137.19,9.06-205.92,9.29-68.39.24-136.78-2.43-204.96-7.85-69.09-5.49-137.95-13.96-206.34-25.19-8.52-1.4-17.04-2.85-25.54-4.34-.56-.1-.8.75-.24.86h0Z"></path><path class="cls-9" d="m743.98,808.59c70.74,14.84,142.14,26.27,213.97,34.39,72.4,8.19,145.24,12.84,218.08,14.27,72.86,1.43,145.78-.53,218.46-5.8,72.14-5.23,144.05-13.73,215.42-25.47,71.9-11.83,143.26-26.96,213.77-45.38,8.74-2.28,17.42-4.69,26.07-7.29,1.88-.56,1.1-3.41-.81-2.94-35.05,8.64-69.89,17.98-105.11,25.92-35.2,7.93-70.59,15.05-106.12,21.37-71.93,12.78-144.46,22.23-217.26,28.35-71.93,6.04-144.12,8.82-216.3,8.42-72.52-.4-145.02-4.1-217.2-11.09-72.44-7.02-144.55-17.26-216.09-30.64-8.87-1.66-17.73-3.37-26.59-5.13-.68-.13-.97.9-.29,1.04h0Z"></path><path class="cls-9" d="m801.29,747.04c66.03,9.33,132.51,15.65,199.07,19.64,67.15,4.03,134.44,5.72,201.71,5.09,67.27-.64,134.51-3.67,201.57-9.01,66.56-5.3,132.95-12.9,198.99-22.76,66.21-9.89,132.08-22.07,197.44-36.53,8.33-1.84,16.65-3.74,24.95-5.71,2.23-.53,1.29-3.93-.95-3.44-65.36,14.6-130.95,27.79-197.11,38.29-66.28,10.53-132.93,18.74-199.78,24.64-66.69,5.89-133.57,9.44-200.51,10.77-66.93,1.33-133.9.35-200.77-2.94-66.84-3.29-133.58-8.77-200.06-16.33-8.14-.93-16.28-1.82-24.42-2.76-.6-.07-.74.97-.14,1.06h0Z"></path><path class="cls-9" d="m787.87,672.11c63.38,12.06,127.29,21.18,191.48,27.56,65.06,6.47,130.39,10.25,195.77,11.24,65.05.98,130.15-.72,195.06-5.08,64.42-4.33,128.67-11.3,192.52-20.88,64.34-9.65,128.28-21.96,191.6-36.93,8.03-1.9,16.05-3.85,24.05-5.85,2.08-.52,1.2-3.72-.88-3.21-62.9,15.42-126.3,28.55-190.23,38.9-64.08,10.37-128.6,18.08-193.32,23.13-64.55,5.04-129.31,7.43-194.05,7.17-64.74-.26-129.47-3.1-193.98-8.59-65.06-5.54-129.85-13.87-194.29-24.4-7.84-1.28-15.67-2.6-23.49-3.96-.59-.1-.84.79-.25.9h0Z"></path><path class="cls-9" d="m809.07,628.1c65.74,9.24,131.88,15.37,198.17,18.74,66.54,3.38,133.2,4.01,199.8,1.89,66.9-2.13,133.72-7,200.22-14.6,65.7-7.51,131.1-17.66,195.98-30.45,65.67-12.95,130.81-28.61,195.19-46.96,7.98-2.27,15.91-4.64,23.79-7.24,1.82-.6,1.08-3.39-.8-2.89-32.05,8.47-63.82,17.94-95.97,26.07-32.14,8.13-64.44,15.6-96.88,22.4-65.68,13.78-131.93,24.84-198.52,33.15-65.8,8.21-131.92,13.75-198.17,16.6-66.55,2.87-133.24,3.03-199.8.51-66.25-2.51-132.34-7.88-198.2-15.35-8.23-.93-16.45-1.91-24.66-2.93-.6-.07-.74.97-.14,1.06h0Z"></path><polygon class="cls-14" points="1010.27 610.16 966.5 1052.94 966.5 1163.63 1010.27 610.16"></polygon><polygon class="cls-14" points="1625.52 991.15 1589.48 612.73 1624.23 1122.44 1625.52 991.15"></polygon></g></g><g><g><path class="cls-9" d="m1625.35,218.95c-10.01-15.42-7.15-36.85,8.66-47.24,14.92-9.81,35-5.84,44.46,9.53,11.05,17.96-1.3,39.96-8.24,57.12-7.82,19.3-15.63,38.61-23.45,57.91-.97,2.39,2.9,3.42,3.86,1.06,7.57-18.7,15.14-37.4,22.72-56.1,6.45-15.93,16.58-34.13,12.7-51.88-2.84-12.99-14.01-23.73-26.97-26.46-13.31-2.8-27.66,2.86-36,13.49-10.05,12.81-9.89,31.16-1.18,44.59,1.4,2.15,4.86.15,3.45-2.02h0Z"></path><path class="cls-9" d="m1977.55,427.25c-10.69-5.55-21.38-11.1-32.07-16.65-25.59-13.28-51.17-26.56-76.76-39.84-30.89-16.04-61.79-32.07-92.68-48.11-26.14-13.57-52.28-27.14-78.42-40.71-8.33-4.32-16.66-8.65-24.99-12.97-3.21-1.66-6.9-4.44-10.41-5.4-2.55-.7-5.63,1.68-7.9,2.81-6.91,3.44-13.81,6.88-20.72,10.32-24.68,12.3-49.36,24.6-74.04,36.9-30.92,15.41-61.83,30.82-92.75,46.22-27.78,13.84-55.56,27.69-83.33,41.53-15.18,7.56-30.36,15.13-45.53,22.69-.72.36-1.43.71-2.15,1.07-1.83.91-.89,3.72,1.01,3.73,21.33.07,42.66.14,63.99.21,50.86.17,101.73.34,152.59.51,61.48.21,122.97.41,184.45.62,53.42.18,106.84.36,160.26.53,17.42.06,34.84.12,52.25.17,8.3.03,16.81.6,25.11.08.36-.02.72,0,1.08,0,2.57,0,2.58-3.99,0-4l-63.99-.21c-50.86-.17-101.73-.34-152.59-.51-61.48-.21-122.97-.41-184.45-.62-53.42-.18-106.84-.36-160.26-.53-17.42-.06-34.84-.12-52.25-.17-5.49-.02-10.99-.04-16.48-.05-2.58,0-6.11-.66-8.62-.03-.31.08-.75,0-1.08,0,.34,1.24.67,2.48,1.01,3.73,10.71-5.34,21.43-10.68,32.14-16.02,25.88-12.9,51.77-25.8,77.65-38.7,31.18-15.54,62.35-31.07,93.53-46.61,26.97-13.44,53.93-26.88,80.9-40.32,8.91-4.44,17.81-8.88,26.72-13.31,2.78-1.39,5.57-2.77,8.35-4.16,1.17-.58,3.58-1.23,4.46-2.22.11-.12.4-.2.55-.27h-2.02c10.41,5.4,20.82,10.81,31.24,16.21,25.16,13.06,50.32,26.12,75.48,39.18,30.31,15.73,60.62,31.47,90.94,47.2,26.34,13.67,52.67,27.34,79.01,41.01,8.64,4.48,17.27,8.97,25.91,13.45,4.01,2.08,8.1,4.79,12.33,6.4.19.07.37.19.55.29,2.28,1.18,4.31-2.27,2.02-3.45Z"></path></g><g class="cls-19"><path class="cls-16" d="m1406.12,1143.01h504.56s-15.73-65.45,18.88-243.7c34.32-176.77,5.15-245.41,5.15-245.41,5.15-54.92,25.74-284.89,25.74-284.89l-77.23-3.43-34.32,267.72c-102.97,12.01-200.79,108.12-200.79,108.12-87.53-87.53-211.09-111.55-211.09-111.55l-18.88-248.85-63.5-1.72,20.59,252.28s-37.76,84.09-5.15,229.97,36.04,281.45,36.04,281.45Z"></path><path class="cls-3" d="m1567.03,951.85c2.52-10.27,1.44-21.07-.37-31.49-4.56-26.28-13.67-51.77-26.81-74.98-2.96-5.23-6.66-10.77-12.45-12.39-6.18-1.73-12.72,1.68-17.26,6.21-4.54,4.53-7.82,10.19-12.36,14.72-6.38,6.36-14.94,10.18-21.33,16.53-8.86,8.81-12.6,21.5-14.83,33.8-4.63,25.47-4.22,51.84,1.18,77.15,1.27,5.93,2.99,12.14,7.39,16.32,3.57,3.39,8.44,4.99,13.14,6.46,13.44,4.21,28.2,8.16,41.28,2.95,11.19-4.46,18.81-14.73,25.83-24.52,6.83-9.53,13.81-19.37,16.6-30.76Z"></path><path class="cls-3" d="m1784.73,823.22c6.15,8.6,15.04,14.82,24.12,20.25,22.9,13.68,48.17,23.38,74.34,28.54,5.9,1.16,12.5,1.97,17.51-1.36,5.34-3.56,7.01-10.74,6.54-17.14-.48-6.4-2.63-12.58-3.11-18.97-.66-8.98,2.02-17.97,1.37-26.95-.91-12.47-8.09-23.57-15.97-33.28-16.3-20.11-36.56-36.99-59.28-49.39-5.33-2.91-11.16-5.65-17.2-5.03-4.9.5-9.28,3.14-13.46,5.75-11.95,7.45-24.57,16.07-29.15,29.39-3.91,11.39-1.09,23.87,1.76,35.57,2.78,11.39,5.69,23.1,12.51,32.64Z"></path><path class="cls-3" d="m1689.52,1100.8c10.44-1.66,19.98-6.85,28.88-12.56,22.46-14.4,42.41-32.69,58.71-53.81,3.67-4.76,7.34-10.31,6.59-16.28-.8-6.36-6.48-11.07-12.42-13.5-5.94-2.43-12.43-3.25-18.37-5.68-8.34-3.41-15.18-9.82-23.51-13.24-11.56-4.75-24.7-3.27-36.9-.56-25.27,5.62-49.41,16.22-70.65,31.02-4.98,3.47-10.03,7.47-12.18,13.14-1.74,4.61-1.33,9.71-.86,14.61,1.34,14.02,3.42,29.16,13.3,39.19,8.45,8.58,20.88,11.62,32.62,14.29,11.44,2.6,23.21,5.21,34.79,3.37Z"></path><path class="cls-3" d="m1446.5,825.57c3.66-9.92,3.81-20.77,3.2-31.33-1.55-26.63-7.72-52.99-18.15-77.54-2.35-5.54-5.39-11.45-10.96-13.72-5.94-2.42-12.83.23-17.85,4.22-5.02,3.99-8.93,9.24-13.95,13.23-7.06,5.6-16,8.42-23.06,14.01-9.81,7.75-14.95,19.93-18.56,31.9-7.48,24.78-10.07,51.02-7.57,76.79.59,6.04,1.6,12.4,5.49,17.05,3.16,3.77,7.82,5.91,12.32,7.91,12.88,5.7,27.09,11.3,40.68,7.61,11.62-3.16,20.36-12.51,28.44-21.44,7.87-8.7,15.91-17.68,19.98-28.68Z"></path><path class="cls-4" d="m1649.14,743.14c2.66,100.18,2.4,200.43-.85,300.58-.93,28.52-2.1,57.03-3.5,85.54-.06,1.29,1.94,1.28,2,0,4.92-100.09,6.91-200.32,5.92-300.53-.28-28.54-.81-57.07-1.57-85.59-.03-1.28-2.03-1.29-2,0h0Z"></path><path class="cls-15" d="m1483.66,1163.73c-5.99-45.28,1.21-92,20.98-133.22,19.85-41.4,53.53-74.55,71.62-116.89,9.54-22.34,14.47-46.76,9.56-70.85-.26-1.26-2.18-.73-1.93.53,9.71,47.64-18.54,91.04-44.63,128.14-13.14,18.69-26.43,37.39-36.34,58.06-9.31,19.41-15.93,40.09-19.68,61.28-4.26,24.09-4.78,48.7-1.57,72.95.17,1.26,2.17,1.27,2,0h0Z"></path><path class="cls-15" d="m1500.51,1008.1c-8.55-40.11-7.28-82.08,3.98-121.55,1.26-4.4,2.61-8.78,4.14-13.1,1.62-4.6,3.78-11.62,7.73-14.91,2.69-2.24,6.89-1.63,8.72,1.42,1.37,2.29,1.34,5.7,1.6,8.28.55,5.41.53,10.88.28,16.3-.95,20.48-5.3,40.16-11.15,59.75-6.31,21.12-13.54,41.99-17.22,63.79-.21,1.26,1.71,1.8,1.93.53,7.62-45.18,29.8-86.98,28.57-133.7-.16-6.01.65-17.01-6.6-19.4-7.38-2.43-11.24,6.34-13.57,11.68-8.69,19.92-12.84,42.72-14.88,64.25-2.45,25.79-.85,51.83,4.56,77.17.27,1.26,2.2.73,1.93-.53h0Z"></path><path class="cls-15" d="m1578.12,911.69c15.74-47.6,48.4-89.04,90.82-115.74,10.26-6.46,21.83-13.48,33.55-16.85,8.85-2.55,18.04.7,17.91,11.2-.1,7.95-6.12,14.46-11.13,19.99-17.64,19.52-38.93,35.38-60.52,50.23-24.17,16.62-49.2,32.07-72.3,50.19-1.01.79.41,2.2,1.41,1.41,23.41-18.36,48.81-33.93,73.26-50.82,23.01-15.89,46.82-33.12,64.36-55.18,6-7.55,11.47-21.5.93-28.12-10-6.27-24.56,2.95-33.44,7.58-23.49,12.22-44.65,28.88-62.26,48.64-19.89,22.32-35.14,48.53-44.53,76.91-.4,1.22,1.53,1.75,1.93.53h0Z"></path><path class="cls-15" d="m1689.97,655.96c17.08-2.75,33.52,4.64,45.84,16.19,12.94,12.13,20.48,28.17,25.32,45.01,4.92,17.13,7.24,34.86,10.81,52.29,3.16,15.44,7.19,30.69,12.04,45.69,19.22,59.41,51.24,114.59,93.02,160.98,23.58,26.18,50.28,49.46,79.44,69.23,1.07.72,2.07-1.01,1.01-1.73-54.25-36.76-99.68-85.9-132.73-142.45-16.38-28.02-29.7-57.84-39.52-88.78-4.94-15.54-8.98-31.37-12.1-47.38-3.49-17.87-5.95-36.03-11.56-53.41-5.5-17.04-14.23-32.92-28.29-44.35-12.39-10.07-27.79-15.8-43.8-13.23-1.27.2-.73,2.13.53,1.93h0Z"></path><path class="cls-15" d="m1773.8,777.21c-8.28,34.35-17,69.07-22.49,104-4.5,28.58-3.01,59.85,12.49,85.1,4.35,7.09,12.67,20.29,22.46,19.42,4.68-.42,7.64-5.09,9.83-8.75,3.35-5.62,5.19-11.95,6.28-18.37,2.47-14.53,1.93-30,1.38-44.68-.52-13.77-2.6-27.46-5.14-40.99-6.07-32.27-15.4-63.78-22.88-95.72-.29-1.25-2.22-.72-1.93.53,5.94,25.39,13.07,50.48,18.77,75.93,3.03,13.55,5.74,27.2,7.5,40.97,1.62,12.61,1.78,25.13,1.83,37.82.05,14.05.16,29.73-6.88,42.36-1.52,2.72-3.28,5.82-5.87,7.66-3.26,2.31-6.95.91-9.94-1.16-5.08-3.52-9.04-8.85-12.38-13.96-16.11-24.62-18.02-55.61-13.84-84,2.55-17.36,6.66-34.59,10.38-51.73,3.91-18.01,8.04-35.97,12.36-53.89.3-1.25-1.63-1.78-1.93-.53h0Z"></path><path class="cls-15" d="m1758.25,708.59c12.66,23.21,25.07,46.65,39.68,68.72,13.32,20.12,29.46,41.5,51.01,53.28,9.71,5.31,22.5,9.54,32.69,3.01,9.57-6.14,9.24-16.72,4.36-25.94-11.48-21.72-30.66-40.02-49.9-54.84-23.58-18.16-49.93-32.3-76.47-45.59-1.15-.58-2.16,1.15-1.01,1.73,41.33,20.71,83.6,44.03,112.81,80.87,7.35,9.27,22.85,26.87,13.06,38.69-9.26,11.16-25.54,5.54-35.96-.45-20.49-11.79-36.02-32.36-48.86-51.76-14.61-22.07-27.01-45.51-39.68-68.72-.62-1.13-2.34-.12-1.73,1.01h0Z"></path><path class="cls-15" d="m1852.14,946.51c-.32,33.91-.48,70.01,15.69,100.84,2.83,5.4,6.5,11.53,13,12.76,5.83,1.1,9.83-2.46,11.57-7.74,5.34-16.2-2.35-34.52-8.64-49.27-8.43-19.76-19.01-38.52-29.76-57.09-.64-1.11-2.37-.11-1.73,1.01,7.85,13.55,15.57,27.19,22.47,41.25,6.94,14.12,14.3,29.29,16.67,44.99,1.11,7.32,2.13,23.36-7.67,24.93-8.84,1.42-13.9-10.78-16.8-17.19-6.35-14.05-9.65-29.25-11.28-44.53-1.77-16.58-1.69-33.3-1.53-49.95.01-1.29-1.99-1.29-2,0h0Z"></path><path class="cls-15" d="m1379.06,894.68c-9.65-51.95,4.36-105.1,30.12-150.4,26.16-46.03,64.56-83.52,105.56-116.41,23.78-19.08,48.62-36.78,73.45-54.45,1.04-.74.04-2.48-1.01-1.73-85.89,61.12-179.52,129.73-206.68,237.65-7.07,28.08-8.66,57.34-3.36,85.87.23,1.26,2.16.73,1.93-.53h0Z"></path><path class="cls-15" d="m1383.19,813.98c8.5-41.14,33.57-80.41,68.51-104.06,8.54-5.78,17.82-10.76,27.6-14.09,6.31-2.15,13.38-3.57,19.69-.63,6.92,3.22,9.22,10.1,6.79,17.15-3.95,11.46-14.92,21.51-23.64,29.54-8.68,7.99-18.1,15.12-27.73,21.93-23.86,16.86-48.33,32.91-72.69,49.04-1.07.71-.07,2.44,1.01,1.73,24.82-16.45,49.82-32.76,74.08-50.03,10.19-7.26,20.16-14.91,29.21-23.56,8.05-7.7,18.02-17.3,21.69-28.11,3.28-9.68-1.89-18.61-11.85-20.84-10.56-2.36-22.04,3.25-31.26,7.93-19.81,10.06-36.75,25.33-50.3,42.82-16.04,20.71-27.73,44.97-33.04,70.66-.26,1.26,1.67,1.79,1.93.53h0Z"></path><path class="cls-15" d="m1397.42,766.96c6.25-17.15,11.14-34.97,13.67-53.06,1.18-8.45,1.33-16.88,1.74-25.38.4-8.12.97-16.36-.37-24.42-1.1-6.58-3.83-14.87-10.29-18.11-5.24-2.62-9.03,1.19-12.26,5.08-10.42,12.52-9.33,34.02-7.86,49.13,2.2,22.66,9.31,44.45,13.45,66.77.23,1.26,2.16.73,1.93-.53-3.11-16.8-7.86-33.24-11-50.03-3.17-16.94-5.27-35.99-.34-52.81,1.72-5.85,6.8-18.56,15.08-15.88,4.06,1.31,6.73,7.27,7.94,10.93,1.28,3.87,1.83,7.97,2.06,12.02.42,7.53-.28,15.05-.54,22.57-.26,7.6-.68,15.07-1.83,22.61-2.63,17.25-7.33,34.21-13.3,50.59-.44,1.21,1.49,1.73,1.93.53h0Z"></path><path class="cls-15" d="m1431.02,865.36c14.82,73.06,50.34,146.91,118.89,183.16,35.23,18.63,74.36,20.85,113.34,23.44,21.38,1.42,42.9,3.25,63.63,8.99,16.68,4.62,32.57,11.87,47.11,21.25,32.98,21.29,58.68,53.37,71.55,90.5.42,1.21,2.35.69,1.93-.53-10.84-31.26-30.58-59.02-56.22-79.89-27.34-22.25-59.59-34.68-94.38-39.25-41.28-5.43-84.19-2.45-123.97-16.57-35.43-12.57-65.74-37.39-88.11-67.3-27.24-36.43-42.87-80.09-51.84-124.34-.26-1.26-2.18-.73-1.93.53h0Z"></path><path class="cls-15" d="m1673.75,1072.67c3.48,26.56,6.97,53.38,15.52,78.88,7.06,21.07,17.9,43.92,34.87,58.89,5.77,5.09,15.15,9.05,20.74,1.43,5.33-7.26,3.24-18.91,2.16-27.14-2.71-20.72-10.24-40.56-21.22-58.29-12.81-20.68-30.01-38.28-49.43-52.82-1.03-.77-2.03.96-1.01,1.73,31.05,23.24,56.68,55.2,66.51,93.24,2.5,9.66,4.16,19.77,4.22,29.77.03,4.73-.41,10.51-4.26,13.8-6.24,5.33-14.12-.76-18.63-5.38-14.88-15.24-24.97-34.97-31.76-54.97-8.69-25.56-12.22-52.48-15.71-79.13-.16-1.26-2.17-1.27-2,0h0Z"></path><path class="cls-15" d="m1555.74,1050.63c29.83-28.31,68.99-46.34,110-50.04,10.33-.93,23.63-1.59,31.49,6.58,9.18,9.54-5.51,22.04-13.36,26.99-15.4,9.71-34.8,12.25-52.57,13.98-25.39,2.47-50.87-1.87-76.27.78-1.27.13-1.28,2.13,0,2,26.03-2.72,52.16,1.8,78.19-.98,18.8-2.01,39.46-4.81,55.07-16.39,5.96-4.42,15.31-12.83,13.96-21.17-1.39-8.59-11.81-12.64-19.27-13.75-10.52-1.58-21.74.13-32.14,1.94-11.32,1.97-22.45,5.01-33.2,9.04-23.53,8.82-45.08,22.32-63.31,39.61-.94.89.48,2.3,1.41,1.41h0Z"></path></g></g><g><path class="cls-14" d="m534.02,298.47h344s89.19,108.98-31.72,356.66l-101.6,1345.43-99.29-5.52S468.89,511.14,485.44,409.09c16.55-102.05,48.58-110.62,48.58-110.62Z"></path><g><path class="cls-9" d="m662.96,218.95c-10.01-15.42-7.15-36.85,8.66-47.24,14.92-9.81,35-5.84,44.46,9.53,11.05,17.96-1.3,39.96-8.24,57.12-7.82,19.3-15.63,38.61-23.45,57.91-.97,2.39,2.9,3.42,3.86,1.06,7.57-18.7,15.14-37.4,22.72-56.1,6.45-15.93,16.58-34.13,12.7-51.88-2.84-12.99-14.01-23.73-26.97-26.46-13.31-2.8-27.66,2.86-36,13.49-10.05,12.81-9.89,31.16-1.18,44.59,1.4,2.15,4.86.15,3.45-2.02h0Z"></path><path class="cls-9" d="m1015.16,427.25c-10.69-5.55-21.38-11.1-32.07-16.65-25.59-13.28-51.17-26.56-76.76-39.84-30.89-16.04-61.79-32.07-92.68-48.11-26.14-13.57-52.28-27.14-78.42-40.71-8.33-4.32-16.66-8.65-24.99-12.97-3.21-1.66-6.9-4.44-10.41-5.4-2.55-.7-5.63,1.68-7.9,2.81-6.91,3.44-13.81,6.88-20.72,10.32-24.68,12.3-49.36,24.6-74.04,36.9-30.92,15.41-61.83,30.82-92.75,46.22-27.78,13.84-55.56,27.69-83.33,41.53-15.18,7.56-30.36,15.13-45.53,22.69-.72.36-1.43.71-2.15,1.07-1.83.91-.89,3.72,1.01,3.73,21.33.07,42.66.14,63.99.21,50.86.17,101.73.34,152.59.51,61.48.21,122.97.41,184.45.62,53.42.18,106.84.36,160.26.53,17.42.06,34.84.12,52.25.17,8.3.03,16.81.6,25.11.08.36-.02.73,0,1.08,0,2.57,0,2.58-3.99,0-4l-63.99-.21c-50.86-.17-101.73-.34-152.59-.51-61.48-.21-122.97-.41-184.45-.62-53.42-.18-106.84-.36-160.26-.53-17.42-.06-34.84-.12-52.25-.17-5.49-.02-10.99-.04-16.48-.05-2.58,0-6.11-.66-8.62-.03-.31.08-.75,0-1.08,0,.34,1.24.67,2.48,1.01,3.73l32.14-16.02c25.88-12.9,51.77-25.8,77.65-38.7,31.18-15.54,62.35-31.07,93.53-46.61,26.97-13.44,53.93-26.88,80.9-40.32,8.91-4.44,17.81-8.88,26.72-13.31,2.78-1.39,5.57-2.77,8.35-4.16,1.17-.58,3.58-1.23,4.46-2.22.11-.12.4-.2.55-.27h-2.02c10.41,5.4,20.82,10.81,31.24,16.21,25.16,13.06,50.32,26.12,75.48,39.18,30.31,15.73,60.62,31.47,90.94,47.2,26.34,13.67,52.67,27.34,79.01,41.01,8.64,4.48,17.27,8.97,25.91,13.45,4.01,2.08,8.1,4.79,12.33,6.4.19.07.37.19.55.29,2.28,1.18,4.31-2.27,2.02-3.45Z"></path></g><path class="cls-3" d="m534.02,298.47c-24.34,82.35-33.55,171.65-8.56,253.8,10.72,35.24,27.44,68.33,40.28,102.85,13.95,37.53,23.26,76.59,32.54,115.54,14.12,59.28,28.23,118.56,42.35,177.83,13.73,57.66,27.48,115.43,35.61,174.15,7.97,57.58-.22,97.19,2.28,155.27,2.53,58.83-2.53,139.76,0,198.59,7.68,178.46-6.01,353.58-11.03,532.14l-421.01-27.35c-4.63-171.93-3.24-344.01,4.16-515.84l-38.25,121.38L0,1490.29c74.47-333.74,174.33-625.77,289.12-935.54,16.75-45.21,38.14-94.66,82.37-113.84l162.52-142.45Z"></path><g><path class="cls-5" d="m263.16,638.72c10.5,10.48,17.3,24.92,23.08,38.39,6.31,14.72,10.71,29.68,13.76,45.37,8.03,41.3,12.54,83.22,15.68,125.14,1.74,23.27,3.04,46.58,4.19,69.89.06,1.28,2.06,1.29,2,0-2.12-42.95-4.73-85.91-9.73-128.63-4.29-36.67-8.49-74.8-22.66-109.18-6.12-14.85-13.37-30.88-24.91-42.39-.91-.91-2.33.5-1.41,1.41h0Z"></path><path class="cls-5" d="m333.74,1212.29c19.41.07,38.77,1.38,58.01,3.91,1.27.17,1.26-1.83,0-2-19.24-2.53-38.6-3.83-58.01-3.91-1.29,0-1.29,2,0,2h0Z"></path><path class="cls-5" d="m394,1218.23c-12.28,84.84-21.39,170.13-27.24,255.66-1.66,24.32-3.05,48.65-4.19,72.99-.06,1.29,1.94,1.28,2,0,4-85.21,11.17-170.27,21.56-254.94,3-24.43,6.27-48.82,9.8-73.18.18-1.26-1.74-1.8-1.93-.53h0Z"></path><path class="cls-5" d="m361.47,1547.8c-19.2-4.13-38.53-7.62-57.97-10.47-1.26-.18-1.8,1.74-.53,1.93,19.43,2.85,38.76,6.34,57.97,10.47,1.26.27,1.79-1.66.53-1.93h0Z"></path><path class="cls-5" d="m328.41,1211.1c-18.19,84.26-28.43,170.2-30.37,256.38-.55,24.6-.42,49.2.35,73.79.04,1.28,2.04,1.29,2,0-2.71-86.3,2.75-172.82,16.46-258.08,3.85-23.97,8.37-47.83,13.49-71.56.27-1.25-1.66-1.79-1.93-.53h0Z"></path></g><path class="cls-5" d="m371.81,441.73c-.4,28.04-1.06,56.08-1.66,84.12-.3,14.27-.6,28.55-.86,42.82-.23,13.18-.84,26.48.29,39.64,1.22,14.11,4.84,27.93,14.13,38.94.3.35.84.34,1.21.16,23.79-11.9,48.78-21.07,74.61-27.41-.38-.49-.75-.98-1.13-1.47-13.67,18.53-27.39,37.04-41.02,55.6-5.11,6.96-10.44,14.43-10.85,23.38-.45,9.78,4.37,19.17,8.02,27.96,14.68,35.38,30.73,70.2,48.32,104.24,34.88,67.46,75.93,131.71,123.22,191.16,27.26,34.27,56.55,66.88,87.56,97.79.91.91,2.33-.5,1.41-1.41-53.62-53.45-101.92-112.08-143.85-175.12-41.23-61.99-76.26-127.96-105.86-196.24-4.51-10.4-9.07-20.81-13.15-31.38-2.29-5.93-4.26-12.15-3.49-18.58.73-6.17,3.89-11.57,7.37-16.6,14.07-20.32,29.36-39.89,44.04-59.78.55-.74-.35-1.66-1.13-1.47-19.65,4.82-38.86,11.25-57.42,19.33-4.54,1.98-9.05,4.05-13.5,6.22-3.71,1.81-4.36.75-6.5-2.44-1.26-1.88-2.37-3.86-3.35-5.9-4.07-8.39-5.84-17.74-6.64-26.97-1.46-16.98-.41-34.26-.08-51.28.36-18.54.77-37.07,1.16-55.61.42-19.89.85-39.79,1.13-59.68.02-1.29-1.98-1.29-2,0h0Z"></path><path class="cls-14" d="m250.63,1465.45s66.56-400.84,68.4-529.55c0,0,16.55,108.49-68.04,586.57l-.36-57.02Z"></path><g><path class="cls-3" d="m878.02,298.47c24.34,82.35,33.55,171.65,8.56,253.8-10.72,35.24-27.44,68.33-40.28,102.85-13.95,37.53-23.26,76.59-32.54,115.54-14.12,59.28-28.23,118.56-42.35,177.83-13.73,57.66-27.48,115.43-35.61,174.15-7.97,57.58-10.47,115.76-12.97,173.83-2.53,58.83-3.18,104.64-5.71,163.48-7.68,178.46,14.29,370.13,19.31,548.69l429.13-27.35c4.63-171.93,3.24-344.01-4.16-515.84l38.25,121.38,212.38-96.54c-74.47-333.74-174.33-625.77-289.12-935.54-16.75-45.21-38.14-94.66-82.37-113.84l-162.52-142.45Z"></path><g><path class="cls-5" d="m1147.47,637.31c-10.48,10.46-17.29,24.71-23.1,38.12-6.15,14.19-10.71,28.68-13.72,43.85-8.29,41.72-12.91,84.1-16.14,126.48-1.82,23.89-3.15,47.82-4.33,71.75-.06,1.29,1.94,1.28,2,0,2.04-41.39,4.54-82.79,9.2-123.99,2.38-21.08,5.33-42.11,9.15-62.99,2.91-15.9,6.44-31.21,12.35-46.29,6.21-15.84,13.78-33.32,26.01-45.53.91-.91-.5-2.32-1.41-1.41h0Z"></path><path class="cls-5" d="m1078.3,1210.29c-19.41.07-38.77,1.38-58.01,3.91-1.26.17-1.27,2.17,0,2,19.25-2.53,38.6-3.83,58.01-3.91,1.29,0,1.29-2,0-2h0Z"></path><path class="cls-5" d="m1016.11,1218.76c12.3,84.99,21.41,170.43,27.23,256.11,1.63,23.99,3,47.99,4.13,72.01.06,1.28,2.06,1.29,2,0-4.04-86.2-11.34-172.24-21.92-257.88-2.92-23.62-6.1-47.21-9.51-70.77-.18-1.27-2.11-.73-1.93.53h0Z"></path><path class="cls-5" d="m1051.1,1549.73c19.2-4.13,38.53-7.62,57.97-10.47,1.27-.19.73-2.11-.53-1.93-19.43,2.85-38.76,6.34-57.97,10.47-1.26.27-.73,2.2.53,1.93h0Z"></path><path class="cls-5" d="m1081.7,1211.63c18.22,84.41,28.43,170.49,30.32,256.82.53,24.27.39,48.55-.37,72.82-.04,1.29,1.96,1.29,2,0,2.7-86.16-2.75-172.53-16.38-257.65-3.89-24.29-8.45-48.47-13.65-72.52-.27-1.26-2.2-.73-1.93.53h0Z"></path></g><path class="cls-5" d="m1038.22,441.73c.52,36.03,1.43,72.06,2.16,108.09.34,17.09,1.19,34.3.5,51.38-.36,8.97-1.34,18.02-4.1,26.59-1.36,4.23-3.16,8.33-5.51,12.1-1.46,2.34-2.6,5.36-5.65,4.54-2.51-.68-5.17-2.51-7.54-3.61-20.89-9.69-42.69-17.27-65.05-22.76-.77-.19-1.68.73-1.13,1.47,13.28,18,26.57,36,39.84,54.01,6.43,8.72,13.03,17.63,11.45,29.08-1.36,9.9-6.43,19.47-10.28,28.61-14.87,35.36-31.13,70.14-48.95,104.11-34.55,65.87-75.03,128.62-121.52,186.7-26.67,33.32-55.26,65.07-85.49,95.2-.91.91.5,2.32,1.41,1.41,54.32-54.15,103.19-113.63,145.53-177.59,42.52-64.23,78.39-132.7,108.52-203.56,4.17-9.82,9.19-19.79,11.87-30.14,2.64-10.2.07-19.04-5.66-27.64-13.98-21.01-30.03-40.89-45.01-61.2-.38.49-.75.98-1.13,1.47,25.83,6.34,50.82,15.51,74.61,27.41.37.19.92.19,1.21-.16,17.01-20.17,14.93-48.63,14.51-73.33-.48-28.62-1.16-57.24-1.75-85.85-.32-15.44-.63-30.88-.85-46.33-.02-1.29-2.02-1.29-2,0h0Z"></path><path class="cls-14" d="m1161.41,1465.45s-66.56-400.84-68.4-529.55c0,0-16.55,108.49,68.04,586.57l.36-57.02Z"></path></g></g><g><path class="cls-12" d="m142.97,383.06c-59.97,54.93-121.29,182.07-82.58,227.22,26.31,30.68,73.49,34.02,114.01,27.6,117.67-18.64,216.24-96.73,299.36-180.45,62.49-62.94,120.52-131.74,158.12-211.32,34.47-72.94,68.67-176.71,6.07-228.4-56.91-47-180.12,3.25-264.44,107.16"></path><path class="cls-10" d="m463.86,134.23c-45.7-31.72-82.76-49.94-138.42-62.03-20.51-.24-41.18,3.61-60.3,11.04-30.7,11.93-63.42,32.81-91.76,49.6-79.41,47.05-100.68,117.03-87.25,192.81,20.02,50.86,51.4,96.15,94.96,127.88,12.27,8.94,28.38,10.46,42.11,3.98,60.5-28.52,116.29-63.67,160.65-114.17,49.49-56.33,85.54-123,87.35-197.96h0c-.91-4.53-3.56-8.52-7.35-11.15Z"></path><path class="cls-8" d="m105.02,299.79c12.41,27.41,83.67-57.48,96.19-69.42,40.32-38.5,80.65-77.01,120.98-115.52,24.46-23.37-12.51-21.53-27.91-15.21-65.4,26.83-123.57,54.89-164.73,113.52-10.54,15.02-15.47,28.08-21.49,45.61-2.55,7.43-7.42,31.32-3.03,41.02Z"></path><path class="cls-16" d="m154.46,429.2s15.1,21.86,26.65,24.32c0,0,4.49,12.43,15.28,10.01,10.79-2.42,249.89-43.27,274.83-318.15,0,0-4.86-16.87-12.78-17.81,0,0-18.25-12.67-22.93-12.3,0,0-50.8,309.86-281.04,313.94Z"></path></g></g><g><rect class="cls-4" x="1291.42" y="2189.93" width="572.41" height="468.08"></rect><rect class="cls-16" x="1264.56" y="2132.72" width="626.12" height="111.96"></rect><path class="cls-14" d="m1479.51,2254.07h196.22v31.56c0,10.89-8.84,19.72-19.72,19.72h-156.77c-10.89,0-19.72-8.84-19.72-19.72v-31.56h0Z"></path><g><path class="cls-7" d="m1542.4,1967.89c10.64-9.35,14.66-16.97,19.77-30.18,5.11-13.21,2.13-30.72-10.31-37.5-9.15-4.98-20.56-2.92-30.18,1.08-24.35,10.11-42.37,30.79-61.83,48.58-39.63,36.23-98.79,64.12-150.91,77.02,0,0,12.2,10.21,41.74,10.28,29.54.07,139.59-24.14,157.95-35.3,18.36-11.16,33.77-33.97,33.77-33.97Z"></path><g><path class="cls-7" d="m1542.4,1967.89c-52.44,37.42-118.12,51.66-182.42,55.69-45.08,2.83-107.09,2.01-133.78,25.09-2.88,3.97-4.56,8.51-5.22,13.26,4.03,20.38,41.99,41.28,63.64,47.26,40.12,11.08,85.56-1.85,134.47-8.87,54.5-7.82,98.66-15.41,153.54-19.87,33.21-2.7,66.57-2.85,99.88-3.74,24.43-.65,52.63-3.69,66.14-24.06-.57-38.21-19.55-89.93-39.3-117.65l.28-.13c-19.51,21.25-44.05,38.6-71.95,45.96-27.9,7.35-61.78,3.79-85.28-12.94Z"></path><path class="cls-14" d="m1347.11,2025.31c33.88.26,67.76-4.57,100.35-13.79,15.79-4.47,31.24-10.04,46.27-16.62,15.76-6.91,32.31-14.58,46.31-24.68.71-.52.1-1.63-.7-1.2-14.95,8.05-29.23,16.87-44.77,23.86-15.37,6.92-31.25,12.76-47.42,17.52-32.51,9.58-66.17,14.34-100.04,14.8-.07,0-.07.11,0,.11h0Z"></path></g><path class="cls-5" d="m1221.57,2063.21c-1.87,11.44,1.86,22.14,9.6,31.17,10.76,12.56,26.73,19.3,42.47,24.38,30.94,9.97,63.43,15.13,95.93,15.22,41.24.11,82.09-7.84,123.3-9.54,41.4-1.71,89.44,7.21,130.86,8.44,38.5,1.14,80.26,1.01,116.81-12.78,9.65-3.64,19.11-9.46,22.08-19.93,2.86-10.06-4.59-20.08-9.52-28.41-1.03-1.74-14.4-19.19-14.46-19.11-13.51,20.36-41.71,23.41-66.14,24.06-33.31.88-66.67,1.04-99.88,3.74-54.88,4.46-99.04,12.04-153.54,19.87-48.91,7.02-94.35,19.95-134.47,8.87-21.65-5.98-59.02-25.59-63.05-45.97Z"></path></g><g><path class="cls-9" d="m1701.01,1967.89c10.64-9.35,14.66-16.97,19.77-30.18,5.11-13.21,2.13-30.72-10.31-37.5-9.15-4.98-20.56-2.92-30.18,1.08-24.35,10.11-42.37,30.79-61.83,48.58-39.63,36.23-98.79,64.12-150.91,77.02,0,0,12.2,10.21,41.74,10.28,29.54.07,139.59-24.14,157.95-35.3,18.36-11.16,33.77-33.97,33.77-33.97Z"></path><g><path class="cls-9" d="m1701.01,1967.89c-52.44,37.42-118.12,51.66-182.42,55.69-45.08,2.83-107.09,2.01-133.78,25.09-2.88,3.97-4.56,8.51-5.22,13.26,4.03,20.38,41.99,41.28,63.64,47.26,40.12,11.08,85.56-1.85,134.47-8.87,54.5-7.82,98.66-15.41,153.54-19.87,33.21-2.7,66.57-2.85,99.88-3.74,24.43-.65,52.63-3.69,66.14-24.06-.57-38.21-19.55-89.93-39.3-117.65l.28-.13c-19.51,21.25-44.05,38.6-71.95,45.96-27.9,7.35-61.78,3.79-85.28-12.94Z"></path><path class="cls-14" d="m1505.72,2025.31c33.88.26,67.76-4.57,100.35-13.79,15.79-4.47,31.24-10.04,46.27-16.62,15.76-6.91,32.31-14.58,46.31-24.68.71-.52.1-1.63-.7-1.2-14.95,8.05-29.23,16.87-44.77,23.86-15.37,6.92-31.25,12.76-47.42,17.52-32.51,9.58-66.17,14.34-100.04,14.8-.07,0-.07.11,0,.11h0Z"></path></g><path class="cls-5" d="m1380.18,2063.21c-1.87,11.44,1.86,22.14,9.6,31.17,10.76,12.56,26.73,19.3,42.47,24.38,30.94,9.97,63.43,15.13,95.93,15.22,41.24.11,82.09-7.84,123.3-9.54,41.4-1.71,89.44,7.21,130.86,8.44,38.5,1.14,80.26,1.01,116.81-12.78,9.65-3.64,19.11-9.46,22.08-19.93,2.86-10.06-4.59-20.08-9.52-28.41-1.03-1.74-14.4-19.19-14.46-19.11-13.51,20.36-41.71,23.41-66.14,24.06-33.31.88-66.67,1.04-99.88,3.74-54.88,4.46-99.04,12.04-153.54,19.87-48.9,7.02-94.35,19.95-134.47,8.87-21.65-5.98-59.02-25.59-63.05-45.97Z"></path></g></g><g><g><g><path class="cls-14" d="m2312.82,2654.92c-2.91,2.9-13.37-8.63-15.46-10.83-4.25-4.47-8.08-9.34-11.34-14.59-6.52-10.5-10.79-22.5-11.11-34.92-.28-10.92,2.71-24.58,13.3-30.08,15.08-7.84,28.67,7.34,36.46,18.27.74,1.04,2.48.04,1.73-1.01-8.01-11.25-20.33-25.08-35.91-20.35-12.48,3.79-17.27,18.34-17.58,30.09-.39,15.13,5.03,29.89,13.51,42.26,4.33,6.31,9.43,12.08,15.13,17.18,2.74,2.45,8.76,9.28,12.67,5.38.91-.91-.5-2.32-1.41-1.41h0Z"></path><path class="cls-14" d="m2315.23,2644.39c-8.2-9.53-19.18-16.98-31.43-20.18-4.66-1.22-10.09-.69-14.67.88-3.92,1.35-4.93,5.84-5.28,9.59-1.14,12.07,5.54,25.03,10.64,35.61,6.34,13.15,14.55,25.26,24.21,36.19.85.97,2.26-.45,1.41-1.41-7.85-8.88-14.73-18.55-20.4-28.97-5.33-9.78-10.46-20.55-12.98-31.45-1.18-5.12-2.68-15.18,3.48-17.77,4.63-1.94,10.75-1.52,15.3-.07,11.07,3.53,20.75,10.22,28.3,19,.84.98,2.25-.44,1.41-1.41h0Z"></path><path class="cls-14" d="m2289.71,2739.25c-7.63-10.62-11.36-23.53-10.39-36.59.44-5.9,1.7-14.93,6.04-19.37,6.9-7.07,16.27.89,21.4,5.84.93.89,2.34-.52,1.41-1.41-4.78-4.62-10.48-9.8-17.68-8.96-7.38.86-10.01,8.02-11.62,14.33-4.13,16.19-.61,33.67,9.11,47.18.74,1.04,2.48.04,1.73-1.01h0Z"></path></g><path class="cls-11" d="m2519.49,2889.52c9.53-55.47,11.07-95.72-4.33-141.28,4.77-69.34,11.27-129.14,16.47-194.15l-198.48-2.6c-19.07,94.47-26.74,178.25-86.24,228.82-11.71,9.95-19.75,15.87-33.8,22.1-25.31,11.23-55.43,20.85-82.63,26-34.37,6.51-60.77,10.29-86.38,20.81-25.61,10.52-51.66,25.08-55.9,52.44,0,0,18.2,21.67,35.1,20.37,16.9-1.3,496.2-32.5,496.2-32.5Z"></path><path class="cls-14" d="m2513.16,2747.5c-47.21,17.96-84.65,55.12-106.97,100.04-6.4,12.88-11.54,26.35-15.47,40.18-.35,1.24,1.58,1.77,1.93.53,17.45-61.33,60.52-115.81,121.05-138.83,1.19-.45.67-2.39-.53-1.93h0Z"></path><path class="cls-14" d="m2534.01,2559.91c10.1-22.02,20.69-43.82,31.77-65.37.59-1.14-1.14-2.16-1.73-1.01-11.07,21.55-21.66,43.35-31.77,65.37-.53,1.16,1.19,2.18,1.73,1.01h0Z"></path><g><path class="cls-14" d="m2359.22,2604.52c6.95-2.11,13.26-8.07,12.86-15.84-.35-6.73-5.82-12.92-12.83-12.54-8.44.46-11.63,8.45-11.66,15.79-.02,3.49-.21,8.21,2.46,10.89,2.44,2.44,6.02,2.33,9.17,1.69,1.26-.26.73-2.18-.53-1.93-5.01,1.02-8.51-1.28-8.96-6.7-.17-2.09-.24-4.25-.06-6.34.61-7.08,6.62-14.33,14.38-10.48,4.72,2.34,7,8.31,5.63,13.28-1.44,5.24-5.99,8.72-10.99,10.24-1.23.37-.7,2.3.53,1.93Z"></path><path class="cls-14" d="m2345.98,2649.97c6.95-2.11,13.26-8.07,12.86-15.84-.35-6.73-5.82-12.92-12.83-12.54-8.44.46-11.63,8.45-11.66,15.79-.02,3.49-.21,8.21,2.46,10.89,2.44,2.44,6.02,2.33,9.17,1.69,1.26-.26.73-2.18-.53-1.93-5.01,1.02-8.51-1.28-8.96-6.7-.17-2.09-.24-4.25-.06-6.34.61-7.08,6.62-14.33,14.38-10.48,4.73,2.34,7,8.31,5.63,13.28-1.44,5.24-5.99,8.72-10.99,10.24-1.23.37-.7,2.3.53,1.93Z"></path><path class="cls-14" d="m2335.58,2690.27c6.95-2.11,13.26-8.07,12.86-15.84-.35-6.73-5.82-12.92-12.83-12.54-8.44.46-11.63,8.45-11.66,15.79-.02,3.49-.21,8.21,2.46,10.89,2.44,2.44,6.02,2.33,9.17,1.69,1.26-.26.73-2.18-.53-1.93-5.01,1.02-8.51-1.28-8.96-6.7-.17-2.09-.24-4.25-.06-6.34.61-7.08,6.62-14.33,14.38-10.48,4.72,2.34,7,8.31,5.63,13.28-1.44,5.24-5.99,8.72-10.99,10.24-1.23.37-.7,2.3.53,1.93Z"></path><path class="cls-14" d="m2319.98,2735.78c6.95-2.11,13.26-8.07,12.86-15.84-.35-6.73-5.82-12.92-12.83-12.54-8.44.46-11.63,8.45-11.66,15.79-.02,3.49-.21,8.21,2.46,10.89,2.44,2.44,6.02,2.33,9.17,1.69,1.26-.26.73-2.18-.53-1.93-5.01,1.02-8.51-1.28-8.96-6.7-.17-2.09-.24-4.25-.06-6.34.61-7.08,6.62-14.33,14.38-10.48,4.72,2.34,7,8.31,5.63,13.28-1.44,5.24-5.99,8.72-10.99,10.24-1.23.37-.7,2.3.53,1.93Z"></path><path class="cls-14" d="m2297.87,2779.98c6.95-2.11,13.26-8.07,12.86-15.84-.35-6.73-5.82-12.92-12.83-12.54-8.44.46-11.63,8.45-11.66,15.79-.02,3.49-.21,8.21,2.46,10.89,2.44,2.44,6.02,2.33,9.17,1.69,1.26-.26.73-2.18-.53-1.93-5.01,1.02-8.51-1.28-8.96-6.7-.17-2.09-.24-4.25-.06-6.34.61-7.08,6.62-14.33,14.38-10.48,4.72,2.34,7,8.31,5.63,13.28-1.44,5.24-5.99,8.72-10.99,10.24-1.23.37-.7,2.3.53,1.93Z"></path></g><path class="cls-14" d="m2509.52,2937.65c-79.11.21-19.19,1.96-101.97,2.13-8.83.02-17.39-3.19-24.03-9.02h0c-8.72-7.65-20.96-9.83-31.78-5.65-11.17,4.32-23.01,8.78-33.28,12.9-2.95,1.18-6.08,1.78-9.26,1.78h-322.76c-22.53,0,1.73-38.14,1.73-38.14,79.16,0,153.55,3.47,232.72,3.47,71.5,0,104.35-6.35,146.99-12.88,47.47-7.27,91.58-18.32,155.28-19.62,0,0,10.27,18.3,7.13,46.4-1.18,10.57-10.14,18.59-20.78,18.62Z"></path></g><g><g><path class="cls-14" d="m2553.34,2660.13c-2.91,2.9-13.37-8.63-15.46-10.83-4.25-4.47-8.08-9.34-11.34-14.59-6.52-10.5-10.79-22.5-11.11-34.92-.28-10.92,2.71-24.58,13.3-30.08,15.08-7.84,28.67,7.34,36.46,18.27.74,1.04,2.48.04,1.73-1.01-8.01-11.25-20.33-25.08-35.91-20.35-12.48,3.79-17.27,18.34-17.58,30.09-.39,15.13,5.03,29.89,13.51,42.26,4.33,6.31,9.43,12.08,15.13,17.18,2.74,2.45,8.76,9.28,12.67,5.38.91-.91-.5-2.32-1.41-1.41h0Z"></path><path class="cls-14" d="m2555.75,2649.59c-8.2-9.53-19.18-16.98-31.43-20.18-4.66-1.22-10.09-.69-14.67.88-3.92,1.35-4.93,5.84-5.28,9.59-1.14,12.07,5.54,25.03,10.64,35.61,6.34,13.15,14.55,25.26,24.21,36.19.85.97,2.26-.45,1.41-1.41-7.85-8.88-14.73-18.55-20.4-28.97-5.33-9.78-10.46-20.55-12.98-31.45-1.18-5.12-2.68-15.18,3.48-17.77,4.63-1.94,10.75-1.52,15.3-.07,11.07,3.53,20.75,10.22,28.3,19,.84.98,2.25-.44,1.41-1.41h0Z"></path><path class="cls-14" d="m2530.22,2744.45c-7.63-10.62-11.36-23.53-10.39-36.59.44-5.9,1.7-14.93,6.04-19.37,6.9-7.07,16.27.89,21.4,5.84.93.89,2.34-.52,1.41-1.41-4.78-4.62-10.48-9.8-17.68-8.96-7.38.86-10.01,8.02-11.62,14.33-4.13,16.19-.61,33.67,9.11,47.18.74,1.04,2.48.04,1.73-1.01h0Z"></path></g><path class="cls-3" d="m2760.01,2894.72c9.53-55.47,11.07-95.72-4.33-141.28,4.77-69.34,11.27-129.14,16.47-194.15l-198.48-2.6c-19.07,94.47-26.74,178.25-86.24,228.82-11.71,9.95-19.75,15.87-33.8,22.1-25.31,11.23-55.43,20.85-82.63,26-34.37,6.51-60.77,10.29-86.38,20.81-25.61,10.52-51.66,25.08-55.9,52.44,0,0,18.2,21.67,35.1,20.37,16.9-1.3,496.2-32.5,496.2-32.5Z"></path><path class="cls-14" d="m2753.67,2752.7c-47.22,17.96-84.65,55.12-106.97,100.04-6.4,12.88-11.54,26.35-15.47,40.18-.35,1.24,1.58,1.77,1.93.53,17.45-61.33,60.52-115.81,121.05-138.83,1.19-.45.67-2.39-.53-1.93h0Z"></path><path class="cls-14" d="m2774.53,2565.11c10.1-22.02,20.69-43.82,31.77-65.37.59-1.14-1.14-2.16-1.73-1.01-11.07,21.55-21.66,43.35-31.77,65.37-.53,1.16,1.19,2.18,1.73,1.01h0Z"></path><g><path class="cls-14" d="m2599.73,2609.72c6.95-2.11,13.26-8.07,12.86-15.84-.35-6.73-5.82-12.92-12.83-12.54-8.44.46-11.63,8.45-11.66,15.79-.02,3.49-.21,8.21,2.46,10.89,2.44,2.44,6.02,2.33,9.17,1.69,1.26-.26.73-2.18-.53-1.93-5.01,1.02-8.51-1.28-8.96-6.7-.17-2.09-.24-4.25-.06-6.34.61-7.08,6.62-14.33,14.38-10.48,4.73,2.34,7,8.31,5.63,13.28-1.44,5.24-5.99,8.72-10.99,10.24-1.23.37-.7,2.3.53,1.93Z"></path><path class="cls-14" d="m2586.49,2655.17c6.95-2.11,13.26-8.07,12.86-15.84-.35-6.73-5.82-12.92-12.83-12.54-8.44.46-11.63,8.45-11.66,15.79-.02,3.49-.21,8.21,2.46,10.89,2.44,2.44,6.02,2.33,9.17,1.69,1.26-.26.73-2.18-.53-1.93-5.01,1.02-8.51-1.28-8.96-6.7-.17-2.09-.24-4.25-.06-6.34.61-7.08,6.62-14.33,14.38-10.48,4.72,2.34,7,8.31,5.63,13.28-1.44,5.24-5.99,8.72-10.99,10.24-1.23.37-.7,2.3.53,1.93Z"></path><path class="cls-14" d="m2576.09,2695.47c6.95-2.11,13.26-8.07,12.86-15.84-.35-6.73-5.82-12.92-12.83-12.54-8.44.46-11.63,8.45-11.66,15.79-.02,3.49-.21,8.21,2.46,10.89,2.44,2.44,6.02,2.33,9.17,1.69,1.26-.26.73-2.18-.53-1.93-5.01,1.02-8.51-1.28-8.96-6.7-.17-2.09-.24-4.25-.06-6.34.61-7.08,6.62-14.33,14.38-10.48,4.72,2.34,7,8.31,5.63,13.28-1.44,5.24-5.99,8.72-10.99,10.24-1.23.37-.7,2.3.53,1.93Z"></path><path class="cls-14" d="m2560.49,2740.98c6.95-2.11,13.26-8.07,12.86-15.84-.35-6.73-5.82-12.92-12.83-12.54-8.44.46-11.63,8.45-11.66,15.79-.02,3.49-.21,8.21,2.46,10.89,2.44,2.44,6.02,2.33,9.17,1.69,1.26-.26.73-2.18-.53-1.93-5.01,1.02-8.51-1.28-8.96-6.7-.17-2.09-.24-4.25-.06-6.34.61-7.08,6.62-14.33,14.38-10.48,4.72,2.34,7,8.31,5.63,13.28-1.44,5.24-5.99,8.72-10.99,10.24-1.23.37-.7,2.3.53,1.93Z"></path><path class="cls-14" d="m2538.39,2785.18c6.95-2.11,13.26-8.07,12.86-15.84-.35-6.73-5.82-12.92-12.83-12.54-8.44.46-11.63,8.45-11.66,15.79-.02,3.49-.21,8.21,2.46,10.89,2.44,2.44,6.02,2.33,9.17,1.69,1.26-.26.73-2.18-.53-1.93-5.01,1.02-8.51-1.28-8.96-6.7-.17-2.09-.24-4.25-.06-6.34.61-7.08,6.62-14.33,14.38-10.48,4.72,2.34,7,8.31,5.63,13.28-1.44,5.24-5.99,8.72-10.99,10.24-1.23.37-.7,2.3.53,1.93Z"></path></g><path class="cls-14" d="m2750.04,2942.85c-79.11.21-19.19,1.96-101.97,2.13-8.83.02-17.39-3.19-24.03-9.02h0c-8.72-7.65-20.96-9.83-31.78-5.65-11.17,4.32-23.01,8.78-33.28,12.9-2.95,1.18-6.08,1.78-9.26,1.78h-322.76c-22.53,0,1.73-38.14,1.73-38.14,79.16,0,153.55,3.47,232.72,3.47,71.5,0,104.35-6.35,146.99-12.88,47.47-7.27,91.58-18.32,155.28-19.62,0,0,10.27,18.3,7.13,46.4-1.18,10.57-10.14,18.59-20.78,18.62Z"></path></g></g></g></g></svg>